<svg width="512" height="512" viewBox="0 0 512 512" fill="none" xmlns="http://www.w3.org/2000/svg">
<circle cx="256" cy="256" r="256" fill="#B6509E"/>
<path d="M256 116C291.346 116 326.654 116 362 116C362 214.667 362 313.333 362 412C326.654 412 291.346 412 256 412C220.654 412 185.346 412 150 412C150 313.333 150 214.667 150 116C185.346 116 220.654 116 256 116ZM255.964 160.667C242.179 160.667 228.393 160.667 214.607 160.667C218.857 175 223.071 189.333 227.321 203.667C229.393 211.667 231.464 219.667 233.536 227.667C233.643 228.667 234.179 229.667 234.286 230.667C237.071 242.667 240.321 254.667 242.893 266.667C243.107 267.667 243.321 268.667 243.536 269.667C240.536 283.667 242.321 294.333 253.607 304C261.321 311 266.607 319.333 267.536 330.667C267.75 333.667 268.393 336.667 268.607 339.667C269.107 346.667 265.107 351.667 258.536 354C253.107 356 247.75 355 242.679 351.667C240.607 350.333 238.536 349 236.464 347.667C235.536 347 234.607 346.333 233.607 345.667C232.607 345 231.536 344.333 230.536 343.667C228.464 342.333 226.393 341 224.321 339.667C213.071 332.333 208.857 320.667 210.607 307C212.821 290.333 214.964 273.667 217.107 257C217.321 255.667 217.536 254.333 217.75 253C217.107 249.667 216.464 246.333 215.821 243C212.964 229.667 210.179 216.333 207.321 203C204.536 189.667 201.75 176.333 198.964 163C199.107 162.333 199.25 161.667 199.321 161C191.464 161 183.607 161 175.75 161C175.75 160.889 175.75 160.778 175.75 160.667C202.488 160.667 229.226 160.667 255.964 160.667ZM300.286 160.667C306.786 193.333 313.25 226 319.75 258.667C321.107 265.333 322.464 272 323.821 278.667C324.036 280 324.25 281.333 324.464 282.667C324.821 281.333 325.179 280 325.536 278.667C333.821 247.667 342.107 216.667 350.393 185.667C351.536 181.333 352.679 177 353.821 172.667C354.25 171 354.679 169.333 355.107 167.667C355.536 166 355.964 164.333 356.393 162.667C356.536 162 356.679 161.333 356.821 160.667C339.536 160.667 322.25 160.667 304.964 160.667C303.607 160.667 302.25 160.667 300.821 160.667C300.643 160.667 300.464 160.667 300.286 160.667ZM293.179 292.667C293.107 293.333 293.036 294 292.964 294.667C290.821 309 288.679 323.333 286.536 337.667C286.321 339 286.107 340.333 285.893 341.667C285.75 341.667 285.607 341.667 285.464 341.667C285.75 352.333 285.286 363 284.089 373.667C291.429 373.667 298.768 373.667 306.107 373.667C306.393 373.667 306.679 373.667 306.964 373.667C306.964 373.556 306.964 373.444 306.964 373.333C302.393 346.444 297.786 319.556 293.179 292.667Z" fill="white"/>
</svg>
