<svg width="512" height="512" viewBox="0 0 512 512" fill="none" xmlns="http://www.w3.org/2000/svg">
<circle cx="256" cy="256" r="256" fill="#F5AC37"/>
<path d="M134.769 175.795L134.769 156.513L180.513 156.513L180.513 128L230.974 128L230.974 156.513L256 156.513L256 156.513L281.026 156.513L281.026 128L331.487 128L331.487 156.513L377.231 156.513L377.231 175.795L134.769 175.795ZM134.769 336.205L134.769 355.487L180.513 355.487L180.513 384L230.974 384L230.974 355.487L256 355.487L256 355.487L281.026 355.487L281.026 384L331.487 384L331.487 355.487L377.231 355.487L377.231 336.205L134.769 336.205ZM134.154 195.282L195.282 195.282L195.282 195.282L230.974 195.282L230.974 195.282L281.026 195.282L281.026 195.282L316.718 195.282L316.718 195.282L377.846 195.282C380 202.667 381.333 210.462 381.538 218.462L387.385 218.462L387.385 293.128L381.538 293.128C381.333 301.128 380 308.923 377.846 316.513L316.718 316.513L316.718 316.513L281.026 316.513L281.026 316.513L230.974 316.513L230.974 316.513L195.282 316.513L195.282 316.513L134.154 316.513C132 308.923 130.667 301.128 130.462 293.128L124.615 293.128L124.615 218.462L130.462 218.462C130.667 210.462 132 202.667 134.154 195.282ZM196.718 218.462L196.718 296.205L226.667 296.205C254.359 296.205 275.897 279.385 281.333 256L282.359 256L282.359 256L316.718 256L316.718 256L352.205 256C352.205 247.179 350.667 239.179 347.487 231.795C338.257 211.795 316.923 218.462 316.923 218.462L316.923 218.462L282.359 218.462L282.359 218.462L281.333 218.462C275.897 195.077 254.359 178.462 226.667 178.462L196.718 178.462L196.718 218.462Z" fill="white"/>
</svg>
