<svg width="512" height="512" viewBox="0 0 512 512" fill="none" xmlns="http://www.w3.org/2000/svg">
<circle cx="256" cy="256" r="256" fill="#2A5ADA"/>
<path d="M256 128L284.444 144.356L341.333 177.067L369.778 193.422V318.578L341.333 334.933L284.444 367.644L256 384L227.556 367.644L170.667 334.933L142.222 318.578V193.422L170.667 177.067L227.556 144.356L256 128Z" fill="white"/>
<path d="M227.556 240.356L256 256.711L284.444 240.356V207.644L256 191.289L227.556 207.644V240.356Z" fill="#2A5ADA"/>
<path d="M284.444 207.644V240.356L341.333 207.644V174.933L284.444 207.644Z" fill="#2A5ADA"/>
<path d="M341.333 304.356L284.444 271.644V304.356L341.333 337.067V304.356Z" fill="#2A5ADA"/>
<path d="M284.444 304.356V271.644L256 288L227.556 271.644V304.356L256 320.711L284.444 304.356Z" fill="#2A5ADA"/>
<path d="M227.556 271.644L170.667 304.356V337.067L227.556 304.356V271.644Z" fill="#2A5ADA"/>
<path d="M170.667 207.644L227.556 240.356V207.644L170.667 174.933V207.644Z" fill="#2A5ADA"/>
</svg>
