<svg width="512" height="512" viewBox="0 0 512 512" fill="none" xmlns="http://www.w3.org/2000/svg">
<circle cx="256" cy="256" r="256" fill="url(#paint0_linear)"/>
<path d="M372.97 163.794C363.764 154.588 350.117 150 335.529 150H176.47C161.882 150 148.235 154.588 139.029 163.794C129.823 173 125.235 186.647 125.235 201.235V310.765C125.235 325.353 129.823 339 139.029 348.206C148.235 357.412 161.882 362 176.47 362H335.529C350.117 362 363.764 357.412 372.97 348.206C382.176 339 386.764 325.353 386.764 310.765V201.235C386.764 186.647 382.176 173 372.97 163.794ZM256 310.765C222.647 310.765 195.823 283.941 195.823 250.588C195.823 217.235 222.647 190.412 256 190.412C289.353 190.412 316.176 217.235 316.176 250.588C316.176 283.941 289.353 310.765 256 310.765Z" fill="white"/>
<path d="M256 207.765C232.235 207.765 213.176 226.823 213.176 250.588C213.176 274.353 232.235 293.412 256 293.412C279.765 293.412 298.823 274.353 298.823 250.588C298.823 226.823 279.765 207.765 256 207.765Z" fill="url(#paint1_linear)"/>
<defs>
<linearGradient id="paint0_linear" x1="0" y1="0" x2="512" y2="512" gradientUnits="userSpaceOnUse">
<stop stop-color="#7C3AED"/>
<stop offset="1" stop-color="#4F46E5"/>
</linearGradient>
<linearGradient id="paint1_linear" x1="213.176" y1="207.765" x2="298.823" y2="293.412" gradientUnits="userSpaceOnUse">
<stop stop-color="#7C3AED"/>
<stop offset="1" stop-color="#4F46E5"/>
</linearGradient>
</defs>
</svg>
