<?xml version="1.0" standalone="no"?><!DOCTYPE svg PUBLIC "-//W3C//DTD SVG 1.1//EN" "http://www.w3.org/Graphics/SVG/1.1/DTD/svg11.dtd"><svg t="1745515470147" class="icon" viewBox="0 0 1049 1024" version="1.1" xmlns="http://www.w3.org/2000/svg" p-id="9160" xmlns:xlink="http://www.w3.org/1999/xlink" width="204.8828125" height="200"><path d="M808.847085 128.358779c12.108643 8.959884 23.756491 18.508559 34.969145 28.569229a17.254176 17.254176 0 1 0 23.065301-25.650867 515.833294 515.833294 0 0 0-37.477913-30.642801 17.254176 17.254176 0 1 0-20.556533 27.724439z" fill="#1296db" p-id="9161"></path><path d="M955.225982 234.827795a17.254176 17.254176 0 1 0-29.004423 18.738957 475.641817 475.641817 0 0 1 76.031012 258.556638c0 263.215778-214.166816 477.356994-477.382594 477.356995-263.241378 0-477.382594-214.141216-477.382594-477.382594 0-263.215778 214.141216-477.356994 477.382594-477.356995a475.667416 475.667416 0 0 1 166.653833 29.900412 17.254176 17.254176 0 0 0 12.031844-32.33238c-235.337741-87.73006-499.577505 8.268693-623.761491 226.557055-124.183986 218.339562-71.679068 494.508771 124.004788 651.997924 195.658256 157.463553 476.665803 149.758053 663.389776-18.226963 186.723973-167.985016 223.997088-446.637394 88.037255-657.809049z" fill="#1296db" p-id="9162"></path><path d="M763.458875 807.287553l31.052396-115.608097-303.663252 0.588793 39.116291-144.945316 89.701234-32.204382 24.166086-88.574848-90.878818 34.508351 63.84557-242.147252h-182.32083l-83.966909 315.771895-69.042302 24.140486-24.140486 88.574849 70.168688-26.444456-48.332172 185.187992z" fill="#1296db" p-id="9163"></path></svg>
