<svg width="512" height="512" viewBox="0 0 512 512" fill="none" xmlns="http://www.w3.org/2000/svg">
<circle cx="256" cy="256" r="256" fill="#FFF5E0" fill-opacity="0.5"/>
<path d="M256 96C167.634 96 96 167.634 96 256C96 344.366 167.634 416 256 416C344.366 416 416 344.366 416 256C416 167.634 344.366 96 256 96Z" fill="#FFDD95"/>
<path d="M256 128C185.307 128 128 185.307 128 256C128 326.693 185.307 384 256 384C326.693 384 384 326.693 384 256C384 185.307 326.693 128 256 128Z" fill="#FFB636"/>
<path d="M256 160C203.019 160 160 203.019 160 256C160 308.981 203.019 352 256 352C308.981 352 352 308.981 352 256C352 203.019 308.981 160 256 160Z" fill="#FFDD95"/>
<circle cx="208" cy="208" r="16" fill="#7C3AED"/>
<circle cx="304" cy="208" r="16" fill="#7C3AED"/>
<path d="M256 288C273.673 288 288 273.673 288 256H224C224 273.673 238.327 288 256 288Z" fill="#7C3AED"/>
<path d="M176 144C176 144 192 128 224 128" stroke="#7C3AED" stroke-width="8" stroke-linecap="round"/>
<path d="M336 144C336 144 320 128 288 128" stroke="#7C3AED" stroke-width="8" stroke-linecap="round"/>
</svg>
