<svg width="512" height="512" viewBox="0 0 512 512" fill="none" xmlns="http://www.w3.org/2000/svg">
<circle cx="256" cy="256" r="256" fill="#FF007A"/>
<path d="M334.463 177.271C329.337 175.553 324.286 177.953 322.644 182.702C317.739 195.865 302.36 193.233 302.36 193.233C288.863 193.074 279.093 181.071 277.902 166.9C277.161 158.695 280.2 150.855 286.229 145.23C289.12 142.477 290.241 138.31 288.487 134.697C286.396 130.269 280.824 128.493 276.378 130.598C264.111 136.504 254.71 147.361 250.864 160.776C246.873 174.732 248.979 190.088 256.672 202.26C239.082 201.486 225.585 214.029 221.865 230.447C220.56 236.338 220.644 242.413 222.26 248.08C223.961 254.058 222.514 260.577 218.159 265.043C210.836 272.443 210.836 277.743 214.43 283.401C220.43 292.414 232.472 286.756 240.302 283.401C253.261 277.743 262.148 265.301 262.148 251.435C262.148 244.423 260.018 237.714 256.078 232.069C259.365 229.622 263.397 228.193 267.641 228.193C280.599 228.193 291.01 238.602 291.01 251.628C291.115 260.77 286.425 269.074 278.685 273.201C274.303 275.593 271.917 280.747 273.642 285.256C275.368 289.765 280.346 291.851 285.069 290.28C297.954 285.944 307.682 274.975 309.954 261.453C313.01 242.799 300.135 225.775 281.74 221.528C293.261 214.516 299.261 201.679 297.6 188.35C307.89 191.705 318.826 188.608 325.5 179.336C328.475 175.52 327.349 169.826 323.533 166.851C320.687 164.62 316.863 164.379 313.784 166.142C314.046 166.271 313.489 166.142 334.463 177.271ZM231.414 265.043C228.414 273.201 221.445 279.602 213.03 282C205.975 283.873 200.198 272.249 209.53 268.13C214.304 265.859 217.114 260.964 216.847 255.682C216.847 254.038 217.035 252.394 217.412 250.805C217.953 247.774 219.238 244.935 221.202 242.585C223.462 245.498 224.652 249.15 224.652 252.986C224.652 257.21 223.532 261.389 231.414 265.043ZM249.732 149.726C253.732 141.587 260.701 135.186 268.962 132.423C273.886 130.551 279.663 142.176 271.923 146.68C267.149 148.85 264.339 153.745 264.606 159.26C264.606 160.905 264.487 162.549 264.11 164.138C263.501 167.169 262.217 170.007 260.252 172.358C258.062 169.445 256.872 165.792 256.872 161.956C256.872 157.745 257.992 153.566 249.732 149.726Z" fill="white"/>
</svg>
