<svg width="512" height="512" viewBox="0 0 512 512" fill="none" xmlns="http://www.w3.org/2000/svg">
<circle cx="256" cy="256" r="256" fill="#2775CA"/>
<path d="M256 120C307.692 120 359.385 120 411.077 120C411.077 194.872 411.077 269.744 411.077 344.615C359.385 344.615 307.692 344.615 256 344.615C204.308 344.615 152.615 344.615 100.923 344.615C100.923 269.744 100.923 194.872 100.923 120C152.615 120 204.308 120 256 120ZM259.487 152.615C225.641 152.615 196.513 170.462 183.179 199.59L183.179 199.59L183.179 199.59L216.41 214.154C224.205 198.154 240.615 187.179 259.487 187.179C287.795 187.179 310.769 209.949 310.769 238.154C310.769 266.359 287.795 289.128 259.487 289.128C241.026 289.128 224.923 278.564 216.923 262.974L216.923 262.974L183.692 277.538C197.026 306.359 225.846 323.795 259.487 323.795C307.385 323.795 346.154 285.231 346.154 238.154C346.154 191.077 307.385 152.615 259.487 152.615ZM166.154 238.154C166.154 244.41 166.769 250.462 167.795 256.205L167.795 256.205L131.282 256.205L131.282 220.103L167.795 220.103C166.769 225.846 166.154 231.897 166.154 238.154ZM380.718 256.205L344.205 256.205C345.231 250.462 345.846 244.41 345.846 238.154C345.846 231.897 345.231 225.846 344.205 220.103L344.205 220.103L380.718 220.103L380.718 256.205Z" fill="white"/>
</svg>
