<svg width="512" height="512" viewBox="0 0 512 512" fill="none" xmlns="http://www.w3.org/2000/svg">
<circle cx="256" cy="256" r="256" fill="#F7931A"/>
<path d="M332.649 214.478C325.519 182.95 295.83 176.348 257.997 180.392L248.413 152.229L230.492 156.638L239.831 184.176C234.449 185.426 228.912 186.782 223.427 188.138L214.004 160.281L196.098 164.689L205.667 192.837C201.199 193.975 196.816 195.098 192.535 196.097L192.474 196.006L168.066 202.057L172.759 221.429C172.759 221.429 186.03 218.142 185.878 218.325C193.341 216.52 196.997 221.218 198.448 224.886L209.114 256.505C209.67 256.367 210.377 256.199 211.161 256L209.67 256.505L224.528 300.173C224.833 302.15 224.528 305.589 219.409 306.822C219.652 306.929 206.208 309.84 206.208 309.84L205.851 331.035L228.997 325.267C233.945 324.016 238.793 322.842 243.55 321.715L253.224 350.102L271.115 345.694L261.471 317.753C267.03 316.441 272.459 315.099 277.745 313.68L287.344 341.499L305.265 337.091L295.59 308.735C324.658 301.989 345.173 288.192 339.779 259.431C335.489 236.488 317.11 228.66 293.313 229.675C311.066 223.421 323.88 211.162 332.649 214.478ZM310.116 284.889C314.756 307.59 280.065 314.016 261.212 318.27L248.794 281.847C267.647 277.608 305.341 261.258 310.116 284.889ZM285.578 237.877C289.793 258.487 261.304 264.094 245.701 267.719L234.418 234.469C250.021 230.858 281.261 216.582 285.578 237.877Z" fill="white"/>
</svg>
