<svg width="40" height="40" viewBox="0 0 40 40" fill="none" xmlns="http://www.w3.org/2000/svg">
<path d="M34.4001 3.20001L22.1001 13.6L24.5001 7.60001L34.4001 3.20001Z" fill="#E17726" stroke="#E17726" stroke-width="0.25" stroke-linecap="round" stroke-linejoin="round"/>
<path d="M5.59985 3.20001L17.7999 13.7L15.4999 7.60001L5.59985 3.20001Z" fill="#E27625" stroke="#E27625" stroke-width="0.25" stroke-linecap="round" stroke-linejoin="round"/>
<path d="M29.7 27.5L26.2 33.2L33.7 35.4L35.9 27.6L29.7 27.5Z" fill="#E27625" stroke="#E27625" stroke-width="0.25" stroke-linecap="round" stroke-linejoin="round"/>
<path d="M4.09985 27.6L6.29985 35.4L13.7999 33.2L10.2999 27.5L4.09985 27.6Z" fill="#E27625" stroke="#E27625" stroke-width="0.25" stroke-linecap="round" stroke-linejoin="round"/>
<path d="M13.3999 17.7L11.2999 21L18.6999 21.4L18.3999 13.4L13.3999 17.7Z" fill="#E27625" stroke="#E27625" stroke-width="0.25" stroke-linecap="round" stroke-linejoin="round"/>
<path d="M26.5999 17.7L21.4999 13.3L21.2999 21.4L28.6999 21L26.5999 17.7Z" fill="#E27625" stroke="#E27625" stroke-width="0.25" stroke-linecap="round" stroke-linejoin="round"/>
<path d="M13.7999 33.2L18.1999 30.9L14.3999 27.7L13.7999 33.2Z" fill="#E27625" stroke="#E27625" stroke-width="0.25" stroke-linecap="round" stroke-linejoin="round"/>
<path d="M21.7999 30.9L26.1999 33.2L25.5999 27.7L21.7999 30.9Z" fill="#E27625" stroke="#E27625" stroke-width="0.25" stroke-linecap="round" stroke-linejoin="round"/>
<path d="M26.1999 33.2L21.7999 30.9L22.1999 34L22.1999 35.3L26.1999 33.2Z" fill="#D5BFB2" stroke="#D5BFB2" stroke-width="0.25" stroke-linecap="round" stroke-linejoin="round"/>
<path d="M13.7999 33.2L17.7999 35.3V34L18.1999 30.9L13.7999 33.2Z" fill="#D5BFB2" stroke="#D5BFB2" stroke-width="0.25" stroke-linecap="round" stroke-linejoin="round"/>
<path d="M18 25.3L14.3 24.2L16.9 22.9L18 25.3Z" fill="#233447" stroke="#233447" stroke-width="0.25" stroke-linecap="round" stroke-linejoin="round"/>
<path d="M22 25.3L23.1 22.9L25.7 24.2L22 25.3Z" fill="#233447" stroke="#233447" stroke-width="0.25" stroke-linecap="round" stroke-linejoin="round"/>
<path d="M13.7999 33.2L14.3999 27.5L10.2999 27.6L13.7999 33.2Z" fill="#CC6228" stroke="#CC6228" stroke-width="0.25" stroke-linecap="round" stroke-linejoin="round"/>
<path d="M25.5999 27.5L26.1999 33.2L29.6999 27.6L25.5999 27.5Z" fill="#CC6228" stroke="#CC6228" stroke-width="0.25" stroke-linecap="round" stroke-linejoin="round"/>
<path d="M28.6999 21L21.2999 21.4L22.0999 25.3L23.1999 22.9L25.7999 24.2L28.6999 21Z" fill="#CC6228" stroke="#CC6228" stroke-width="0.25" stroke-linecap="round" stroke-linejoin="round"/>
<path d="M14.3999 24.2L16.9999 22.9L18.0999 25.3L18.8999 21.4L11.4999 21L14.3999 24.2Z" fill="#CC6228" stroke="#CC6228" stroke-width="0.25" stroke-linecap="round" stroke-linejoin="round"/>
<path d="M11.5 21L14.4 27.7L14.4 24.2L11.5 21Z" fill="#E27525" stroke="#E27525" stroke-width="0.25" stroke-linecap="round" stroke-linejoin="round"/>
<path d="M25.8 24.2L25.6 27.7L28.7 21L25.8 24.2Z" fill="#E27525" stroke="#E27525" stroke-width="0.25" stroke-linecap="round" stroke-linejoin="round"/>
<path d="M18.9 21.4L18.1 25.3L19.1 30L19.3 23.7L18.9 21.4Z" fill="#E27525" stroke="#E27525" stroke-width="0.25" stroke-linecap="round" stroke-linejoin="round"/>
<path d="M21.3 21.4L20.9 23.7L21.1 30L22.1 25.3L21.3 21.4Z" fill="#E27525" stroke="#E27525" stroke-width="0.25" stroke-linecap="round" stroke-linejoin="round"/>
<path d="M22.1 25.3L21.1 30L21.8 30.9L25.6 27.7L25.8 24.2L22.1 25.3Z" fill="#F5841F" stroke="#F5841F" stroke-width="0.25" stroke-linecap="round" stroke-linejoin="round"/>
<path d="M14.3999 24.2L14.3999 27.7L18.1999 30.9L18.8999 30L17.8999 25.3L14.3999 24.2Z" fill="#F5841F" stroke="#F5841F" stroke-width="0.25" stroke-linecap="round" stroke-linejoin="round"/>
<path d="M22.2 35.3L22.2 34L21.9 33.7H18.1L17.8 34V35.3L13.8 33.2L15.4 34.5L18 36.4H21.9L24.6 34.5L26.2 33.2L22.2 35.3Z" fill="#C0AC9D" stroke="#C0AC9D" stroke-width="0.25" stroke-linecap="round" stroke-linejoin="round"/>
<path d="M21.7999 30.9L21.0999 30H18.8999L18.1999 30.9L17.7999 34L18.0999 33.7H21.8999L22.1999 34L21.7999 30.9Z" fill="#161616" stroke="#161616" stroke-width="0.25" stroke-linecap="round" stroke-linejoin="round"/>
<path d="M35 14.1L36 8.60001L34.4 3.20001L21.8 13.1L26.6 17.7L33.5 19.8L35 17.9L34.4 17.5L35.4 16.6L34.6 16.1L35.6 15.3L35 14.1Z" fill="#763E1A" stroke="#763E1A" stroke-width="0.25" stroke-linecap="round" stroke-linejoin="round"/>
<path d="M4 8.60001L5 14.1L4.3 15.3L5.4 16.1L4.6 16.6L5.6 17.5L5 17.9L6.4 19.8L13.3 17.7L18.1 13.1L5.5 3.20001L4 8.60001Z" fill="#763E1A" stroke="#763E1A" stroke-width="0.25" stroke-linecap="round" stroke-linejoin="round"/>
<path d="M33.5 19.8L26.6 17.7L28.7 21L25.6 27.7L29.7 27.6H35.9L33.5 19.8Z" fill="#F5841F" stroke="#F5841F" stroke-width="0.25" stroke-linecap="round" stroke-linejoin="round"/>
<path d="M13.3999 17.7L6.49988 19.8L4.09988 27.6H10.2999L14.3999 27.7L11.2999 21L13.3999 17.7Z" fill="#F5841F" stroke="#F5841F" stroke-width="0.25" stroke-linecap="round" stroke-linejoin="round"/>
<path d="M21.3 21.4L21.8 13.1L24.5 7.60001H15.5L18.2 13.1L18.7 21.4L18.9 23.8V30H21.1V23.8L21.3 21.4Z" fill="#F5841F" stroke="#F5841F" stroke-width="0.25" stroke-linecap="round" stroke-linejoin="round"/>
</svg>
