<svg width="40" height="40" viewBox="0 0 40 40" fill="none" xmlns="http://www.w3.org/2000/svg">
<path d="M20 40C31.0457 40 40 31.0457 40 20C40 8.9543 31.0457 0 20 0C8.9543 0 0 8.9543 0 20C0 31.0457 8.9543 40 20 40Z" fill="#3375BB"/>
<path d="M19.9871 8.33334C24.2871 8.33334 27.7738 9.16667 30.4471 10.8333C30.4471 17.5 27.7738 21.6667 22.4338 23.3333L24.2871 16.6667H21.6138L19.7605 23.3333C14.4205 21.6667 11.7471 17.5 11.7471 10.8333C14.4205 9.16667 17.9071 8.33334 19.9871 8.33334ZM19.9871 31.6667C17.9071 31.6667 14.4205 30.8333 11.7471 29.1667C11.7471 22.5 14.4205 18.3333 19.7605 16.6667L17.9071 23.3333H20.5805L22.4338 16.6667C27.7738 18.3333 30.4471 22.5 30.4471 29.1667C27.7738 30.8333 24.2871 31.6667 19.9871 31.6667Z" fill="white"/>
</svg>
