<svg width="40" height="40" viewBox="0 0 40 40" fill="none" xmlns="http://www.w3.org/2000/svg">
<path d="M8.19258 13.4333C15.1222 6.50367 26.3778 6.50367 33.3074 13.4333L34.0519 14.1778C34.4593 14.5852 34.4593 15.2444 34.0519 15.6519L31.3333 18.3704C31.1296 18.5741 30.8 18.5741 30.5963 18.3704L29.5704 17.3444C24.6815 12.4556 16.8185 12.4556 11.9296 17.3444L10.8148 18.4593C10.6111 18.663 10.2815 18.663 10.0778 18.4593L7.35925 15.7407C6.95184 15.3333 6.95184 14.6741 7.35925 14.2667L8.19258 13.4333ZM38.1926 18.3185L40.5778 20.7037C40.9852 21.1111 40.9852 21.7704 40.5778 22.1778L29.7222 33.0333C29.3148 33.4407 28.6556 33.4407 28.2481 33.0333L20.8889 25.6741C20.787 25.5722 20.6222 25.5722 20.5204 25.6741L13.1611 33.0333C12.7537 33.4407 12.0944 33.4407 11.687 33.0333L0.831406 22.1778C0.423998 21.7704 0.423998 21.1111 0.831406 20.7037L3.21665 18.3185C3.62406 17.9111 4.28332 17.9111 4.69073 18.3185L12.0519 25.6796C12.1537 25.7815 12.3185 25.7815 12.4204 25.6796L19.7796 18.3204C20.187 17.913 20.8463 17.913 21.2537 18.3204L28.613 25.6796C28.7148 25.7815 28.8796 25.7815 28.9815 25.6796L36.3426 


```xml file="public/wallets/coinbase.svg"
<svg width="40" height="40" viewBox="0 0 40 40" fill="none" xmlns="http://www.w3.org/2000/svg">
<path d="M20 40C31.0457 40 40 31.0457 40 20C40 8.9543 31.0457 0 20 0C8.9543 0 0 8.9543 0 20C0 31.0457 8.9543 40 20 40Z" fill="#0052FF"/>
<path d="M20.0002 6.66669C12.6482 6.66669 6.66687 12.648 6.66687 20C6.66687 27.352 12.6482 33.3334 20.0002 33.3334C27.3522 33.3334 33.3335 27.352 33.3335 20C33.3335 12.648 27.3522 6.66669 20.0002 6.66669ZM16.6669 25C16.6669 25.92 15.9202 26.6667 15.0002 26.6667H13.3335C12.4135 26.6667 11.6669 25.92 11.6669 25V15C11.6669 14.08 12.4135 13.3334 13.3335 13.3334H15.0002C15.9202 13.3334 16.6669 14.08 16.6669 15V25ZM28.3335 25C28.3335 25.92 27.5869 26.6667 26.6669 26.6667H25.0002C24.0802 26.6667 23.3335 25.92 23.3335 25V15C23.3335 14.08 24.0802 13.3334 25.0002 13.3334H26.6669C27.5869 13.3334 28.3335 14.08 28.3335 15V25Z" fill="white"/>
</svg>
